<svg width="36" height="36" viewBox="0 0 36 36" fill="none" xmlns="http://www.w3.org/2000/svg">
<path d="M27.4161 28.9577C24.8103 31.5635 18.1371 29.115 12.511 23.489C6.88497 17.8629 4.43652 11.1897 7.04227 8.58393L8.75796 6.86824C9.9424 5.68381 11.8941 5.71512 13.1171 6.93818L15.7746 9.59563C16.9976 10.8187 17.0289 12.7703 15.8445 13.9548L15.476 14.3233C14.8365 14.9628 14.7739 15.9944 15.3681 16.7145C15.9413 17.409 16.5592 18.1009 17.2292 18.7708C17.8991 19.4408 18.591 20.0587 19.2855 20.6319C20.0056 21.2261 21.0372 21.1635 21.6767 20.524L22.0452 20.1555C23.2297 18.9711 25.1813 19.0024 26.4044 20.2254L29.0618 22.8829C30.2849 24.1059 30.3162 26.0576 29.1318 27.242L27.4161 28.9577Z" stroke="white" stroke-width="2.5"/>
</svg>
