<svg width="140" height="78" viewBox="0 0 140 78" fill="none" xmlns="http://www.w3.org/2000/svg">
<path d="M24.5476 0H0V35.7702H8.97183V9.17015H24.5476V0Z" fill="white"/>
<path d="M8.97183 68.8349V42.0098H0V77.9999H24.5476V68.8349H8.97183Z" fill="white"/>
<path d="M36.0994 10.7402C28.0767 10.7402 21.5687 16.4479 21.5687 23.4854C21.5687 30.5228 28.0767 36.2305 36.0994 36.2305C44.122 36.2305 50.63 30.5279 50.63 23.4854C50.63 16.4428 44.122 10.7402 36.0994 10.7402ZM36.0994 28.0986C32.5147 28.0986 29.6065 26.0528 29.6065 23.4956C29.6065 20.9384 32.5147 18.8926 36.0994 18.8926C39.6841 18.8926 42.5922 20.9384 42.5922 23.4956C42.5922 26.0528 39.6841 28.0986 36.0994 28.0986Z" fill="white"/>
<path d="M119.603 11.2517H111.964V35.7702H119.603V11.2517Z" fill="white"/>
<path d="M32.1209 42.0098H24.4819V66.6152H32.1209V42.0098Z" fill="white"/>
<path d="M89.0822 48.3721V42.0098H64.469V66.6152H89.0822V60.2529H72.113V57.2149H86.997V51.3231H72.113V48.3721H89.0822Z" fill="white"/>
<path d="M61.4346 49.7479V42.0098H36.8214V66.6152H44.4603V59.1175H59.3394V52.7552H44.4603V49.7479H61.4346Z" fill="white"/>
<path d="M115.452 0V4.98656H135.072V35.7702H140V0H115.452Z" fill="#EAC375"/>
<path d="M135.072 42.0098V73.0134H115.452V77.9999H140V42.0098H135.072Z" fill="#EAC375"/>
<path d="M124.51 66.1447C125.988 66.1447 127.186 64.9311 127.186 63.434C127.186 61.937 125.988 60.7234 124.51 60.7234C123.032 60.7234 121.834 61.937 121.834 63.434C121.834 64.9311 123.032 66.1447 124.51 66.1447Z" fill="#FF0000"/>
<path d="M70.876 11.2517H53.3615V35.7703H61.0004V29.6329H70.876C73.3105 29.6644 75.6578 28.7158 77.4024 26.9955C79.1471 25.2751 80.1464 22.9238 80.181 20.4577C80.1678 19.234 79.9166 18.0249 79.4416 16.8997C78.9667 15.7745 78.2773 14.7551 77.413 13.9001C76.5488 13.045 75.5265 12.371 74.4048 11.9165C73.2831 11.4621 72.084 11.2362 70.876 11.2517ZM68.3818 22.6006H61.0004V18.2687H68.3818C69.8965 18.2687 71.1486 19.2404 71.1486 20.4372C71.1486 21.634 69.9116 22.6006 68.3818 22.6006Z" fill="white"/>
<path d="M100.71 17.389H90.8291V11.2517H83.1902V35.7702H100.71C101.957 35.8646 103.21 35.6972 104.39 35.2786C105.57 34.86 106.652 34.1992 107.569 33.3375C108.485 32.4758 109.217 31.4318 109.717 30.2707C110.217 29.1097 110.475 27.8566 110.475 26.5899C110.475 25.3231 110.217 24.07 109.717 22.909C109.217 21.7479 108.485 20.7039 107.569 19.8422C106.652 18.9805 105.57 18.3197 104.39 17.9011C103.21 17.4825 101.957 17.3151 100.71 17.4095V17.389ZM98.2156 28.7328H90.8291V24.4213H98.2156C99.7303 24.4213 100.982 25.3931 100.982 26.5899C100.982 27.7866 99.7404 28.7533 98.2156 28.7533V28.7328Z" fill="white"/>
</svg>
