<svg width="89" height="50" viewBox="0 0 89 50" fill="none" xmlns="http://www.w3.org/2000/svg">
<path d="M15.6053 0H0V22.9296H5.70352V5.8783H15.6053V0Z" fill="white"/>
<path d="M5.70352 44.125V26.9294H0V50H15.6053V44.125H5.70352Z" fill="white"/>
<path d="M22.9489 6.8848C17.8488 6.8848 13.7115 10.5436 13.7115 15.0548C13.7115 19.5659 17.8488 23.2247 22.9489 23.2247C28.049 23.2247 32.1862 19.5692 32.1862 15.0548C32.1862 10.5403 28.049 6.8848 22.9489 6.8848ZM22.9489 18.0119C20.67 18.0119 18.8213 16.7006 18.8213 15.0613C18.8213 13.4221 20.67 12.1107 22.9489 12.1107C25.2277 12.1107 27.0765 13.4221 27.0765 15.0613C27.0765 16.7006 25.2277 18.0119 22.9489 18.0119Z" fill="white"/>
<path d="M76.0331 7.21265H71.1769V22.9297H76.0331V7.21265Z" fill="white"/>
<path d="M20.4197 26.9294H15.5635V42.7021H20.4197V26.9294Z" fill="white"/>
<path d="M56.6309 31.0078V26.9294H40.9839V42.7021H56.6309V38.6237H45.8433V36.6763H55.3053V32.8995H45.8433V31.0078H56.6309Z" fill="white"/>
<path d="M39.0548 31.8897V26.9294H23.4078V42.7021H28.264V37.8959H37.7228V33.8175H28.264V31.8897H39.0548Z" fill="white"/>
<path d="M73.3948 0V3.19651H85.8674V22.9296H89V0H73.3948Z" fill="#EAC375"/>
<path d="M85.8674 26.9294V46.8035H73.3948V50H89V26.9294H85.8674Z" fill="#EAC375"/>
<path d="M79.1528 42.4005C80.0923 42.4005 80.8539 41.6226 80.8539 40.6629C80.8539 39.7033 80.0923 38.9253 79.1528 38.9253C78.2133 38.9253 77.4517 39.7033 77.4517 40.6629C77.4517 41.6226 78.2133 42.4005 79.1528 42.4005Z" fill="#E14C4C"/>
<path d="M45.0568 7.21264H33.9226V22.9296H38.7788V18.9955H45.0568C46.6045 19.0156 48.0967 18.4075 49.2058 17.3048C50.3149 16.202 50.9502 14.6947 50.9722 13.1139C50.9638 12.3295 50.8041 11.5544 50.5021 10.8331C50.2002 10.1118 49.762 9.45842 49.2126 8.9103C48.6631 8.36218 48.0133 7.9301 47.3002 7.6388C46.5871 7.34749 45.8248 7.20268 45.0568 7.21264ZM43.4713 14.4876H38.7788V11.7107H43.4713C44.4342 11.7107 45.2302 12.3336 45.2302 13.1008C45.2302 13.8679 44.4438 14.4876 43.4713 14.4876Z" fill="white"/>
<path d="M64.0226 11.1468H57.7413V7.21265H52.8851V22.9297H64.0226C64.8153 22.9901 65.6117 22.8829 66.362 22.6145C67.1123 22.3462 67.8003 21.9226 68.383 21.3702C68.9657 20.8178 69.4305 20.1486 69.7483 19.4043C70.0662 18.6601 70.2302 17.8568 70.2302 17.0448C70.2302 16.2328 70.0662 15.4295 69.7483 14.6853C69.4305 13.941 68.9657 13.2717 68.383 12.7194C67.8003 12.167 67.1123 11.7434 66.362 11.4751C65.6117 11.2067 64.8153 11.0994 64.0226 11.1599V11.1468ZM62.437 18.4185H57.7413V15.6547H62.437C63.3999 15.6547 64.1959 16.2776 64.1959 17.0448C64.1959 17.812 63.4063 18.4316 62.437 18.4316V18.4185Z" fill="white"/>
</svg>
