<svg width="18" height="19" viewBox="0 0 18 19" fill="none" xmlns="http://www.w3.org/2000/svg">
<rect y="0.775635" width="18" height="18" rx="9" fill="#5466A6"/>
<path d="M14.2268 10.7124C14.2232 10.7322 14.2208 10.7521 14.217 10.7719L14.1978 10.6586C14.2083 10.6762 14.217 10.6946 14.2268 10.7124C14.2849 10.3963 14.3154 10.0728 14.3154 9.74942C14.3154 9.03232 14.175 8.3366 13.8976 7.68168C13.63 7.04903 13.2471 6.48087 12.7589 5.99307C12.2715 5.50526 11.703 5.12239 11.0707 4.85479C10.4159 4.57775 9.72022 4.43736 9.00312 4.43736C8.66515 4.43736 8.32664 4.46907 7.99722 4.53232C7.99651 4.5325 7.99562 4.5325 7.99472 4.53268C8.01325 4.54248 8.03196 4.55121 8.05013 4.56136L7.93843 4.5439C7.95713 4.54034 7.97602 4.53642 7.99472 4.53268C7.54273 4.29234 7.03443 4.16406 6.5199 4.16406C5.67987 4.16406 4.89008 4.49117 4.29609 5.08534C3.70228 5.67933 3.375 6.46911 3.375 7.30915C3.375 7.84381 3.51254 8.36938 3.7707 8.83385C3.77408 8.81461 3.7764 8.79519 3.78014 8.77595L3.79938 8.8873C3.7894 8.86984 3.78067 8.85167 3.7707 8.83385C3.71832 9.13477 3.6907 9.44227 3.6907 9.74942C3.6907 10.4667 3.83109 11.1622 4.10849 11.8173C4.37573 12.4502 4.75878 13.018 5.24641 13.5058C5.73457 13.9936 6.30237 14.377 6.93538 14.6439C7.59012 14.9214 8.28602 15.062 9.00312 15.062C9.31526 15.062 9.62811 15.0335 9.93348 14.9794C9.91566 14.9694 9.89749 14.9603 9.87932 14.9498L9.9928 14.9697C9.97321 14.9735 9.95343 14.9758 9.93348 14.9794C10.404 15.2455 10.9367 15.387 11.4806 15.387C12.3205 15.387 13.1099 15.0604 13.7039 14.4661C14.2981 13.8724 14.625 13.0825 14.625 12.2424C14.625 11.706 14.4867 11.1786 14.2268 10.7124ZM9.02432 13.0028C7.13706 13.0028 6.29275 12.075 6.29275 11.3796C6.29275 11.0229 6.55607 10.773 6.91899 10.773C7.72659 10.773 7.51743 11.9326 9.02432 11.9326C9.79576 11.9326 10.2217 11.5138 10.2217 11.0851C10.2217 10.8273 10.0945 10.5415 9.5866 10.4163L7.90796 9.99724C6.55607 9.6582 6.31074 8.92739 6.31074 8.2404C6.31074 6.81404 7.65372 6.27848 8.91493 6.27848C10.0767 6.27848 11.4462 6.92058 11.4462 7.77628C11.4462 8.14294 11.1288 8.3562 10.766 8.3562C10.0767 8.3562 10.2036 7.40215 8.81516 7.40215C8.12621 7.40215 7.74459 7.71411 7.74459 8.16058C7.74459 8.60616 8.28869 8.74851 8.76117 8.85612L10.0037 9.13191C11.3646 9.43515 11.7097 10.2297 11.7097 10.9782C11.7097 12.1373 10.82 13.0028 9.02432 13.0028ZM9.87932 14.9498C9.89749 14.9603 9.91566 14.9694 9.93348 14.9794C9.95343 14.9758 9.97321 14.9735 9.9928 14.9697L9.87932 14.9498ZM14.217 10.7719C14.2208 10.7521 14.2232 10.7322 14.2268 10.7124C14.217 10.6946 14.2083 10.6762 14.1978 10.6586L14.217 10.7719ZM3.78014 8.77595C3.7764 8.79519 3.77408 8.81461 3.7707 8.83385C3.78067 8.85167 3.7894 8.86984 3.79938 8.8873L3.78014 8.77595ZM8.05013 4.56136C8.03196 4.55121 8.01325 4.54248 7.99472 4.53268C7.97602 4.53642 7.95713 4.54034 7.93843 4.5439L8.05013 4.56136Z" fill="white"/>
</svg>
