<svg width="18" height="19" viewBox="0 0 18 19" fill="none" xmlns="http://www.w3.org/2000/svg">
<rect y="0.775635" width="18" height="18" rx="9" fill="#5466A6"/>
<path fill-rule="evenodd" clip-rule="evenodd" d="M11.0008 14.2323C11.6299 14.5075 11.8658 13.9309 11.8658 13.9309L13.5302 5.56951C13.5171 5.00598 12.757 5.34672 12.757 5.34672L3.43891 9.00317C3.43891 9.00317 2.99332 9.16043 3.03264 9.43565C3.07196 9.71087 3.42581 9.84192 3.42581 9.84192L5.7717 10.6283C5.7717 10.6283 6.4794 12.9479 6.62356 13.3935C6.75461 13.826 6.87256 13.8391 6.87256 13.8391C7.00362 13.8915 7.12157 13.7998 7.12157 13.7998L8.64181 12.4237L11.0008 14.2323ZM11.4071 7.05043C11.4071 7.05043 11.7347 6.85384 11.7216 7.05043C11.7216 7.05043 11.774 7.07664 11.6037 7.26011C11.4464 7.41738 7.73753 10.7462 7.23952 11.1918C7.20021 11.218 7.174 11.2573 7.174 11.3097L7.02983 12.5416C7.00362 12.6727 6.83325 12.6858 6.79393 12.5679L6.17797 10.5496C6.15176 10.471 6.17797 10.3792 6.25661 10.3268L11.4071 7.05043Z" fill="white"/>
</svg>
