<svg width="34" height="34" viewBox="0 0 34 34" fill="none" xmlns="http://www.w3.org/2000/svg">
<rect width="34" height="34" rx="17" fill="#6673A1"/>
<path fill-rule="evenodd" clip-rule="evenodd" d="M27.8133 11.712C27.9709 11.1867 27.8133 10.8005 27.0633 10.8005H24.5836C23.953 10.8005 23.6626 11.1341 23.5049 11.502C23.5049 11.502 22.2438 14.5756 20.4573 16.5721C19.8793 17.1501 19.6167 17.3338 19.3014 17.3338C19.1437 17.3338 18.9156 17.1501 18.9156 16.6248V11.712C18.9156 11.0815 18.7326 10.8005 18.2071 10.8005H14.3104C13.9164 10.8005 13.6795 11.0931 13.6795 11.3705C13.6795 11.9683 14.5725 12.1061 14.6646 13.7874V17.4392C14.6646 18.2398 14.5201 18.385 14.2048 18.385C13.3642 18.385 11.3194 15.2974 10.1065 11.7646C9.86879 11.0779 9.63038 10.8005 8.99663 10.8005H6.51689C5.80839 10.8005 5.66669 11.1341 5.66669 11.502C5.66669 12.1587 6.5075 15.4164 9.58114 19.7248C11.6305 22.6668 14.5173 24.262 17.1444 24.262C18.7208 24.262 18.9156 23.9078 18.9156 23.2976V21.0738C18.9156 20.3653 19.0649 20.2239 19.5639 20.2239C19.932 20.2239 20.5623 20.4078 22.0337 21.8264C23.715 23.5075 23.992 24.262 24.9379 24.262H27.4176C28.1261 24.262 28.4803 23.9078 28.2759 23.2087C28.0524 22.5118 27.2497 21.5012 26.1845 20.3027C25.6065 19.6196 24.7395 18.884 24.477 18.5163C24.1091 18.0433 24.2141 17.8333 24.477 17.4131C24.477 17.4131 27.498 13.1572 27.8133 11.7122V11.712Z" fill="white"/>
</svg>
