<svg width="18" height="19" viewBox="0 0 18 19" fill="none" xmlns="http://www.w3.org/2000/svg">
<rect y="0.775635" width="18" height="18" rx="9" fill="#5466A6"/>
<path d="M13.0315 5.72994C12.0666 4.7367 10.7329 4.19751 9.3707 4.19751C6.4761 4.19751 4.14908 6.55292 4.17745 9.41913C4.17745 10.3272 4.43286 11.207 4.85853 12.0016L4.1207 14.6975L6.8734 13.9881C7.63962 14.4137 8.49097 14.6124 9.34232 14.6124C12.2085 14.6124 14.5356 12.257 14.5356 9.39075C14.5356 8.00021 13.9964 6.69481 13.0315 5.72994ZM9.3707 13.7326C8.60448 13.7326 7.83826 13.534 7.18556 13.1367L7.01529 13.0516L5.36935 13.4772L5.79502 11.8597L5.68151 11.6894C4.43286 9.67454 5.02881 7.00697 7.07205 5.75832C9.11529 4.50967 11.7545 5.10562 13.0031 7.14886C14.2518 9.1921 13.6558 11.8313 11.6126 13.0799C10.9599 13.5056 10.1653 13.7326 9.3707 13.7326ZM11.868 10.5826L11.5558 10.4408C11.5558 10.4408 11.1018 10.2421 10.818 10.1002C10.7896 10.1002 10.7612 10.0718 10.7329 10.0718C10.6477 10.0718 10.591 10.1002 10.5342 10.1286C10.5342 10.1286 10.5058 10.157 10.1085 10.611C10.0802 10.6678 10.0234 10.6962 9.96664 10.6962H9.93826C9.90989 10.6962 9.85313 10.6678 9.82475 10.6394L9.68286 10.5826C9.3707 10.4408 9.08691 10.2705 8.85989 10.0435C8.80313 9.9867 8.71799 9.92994 8.66124 9.87319C8.46259 9.67454 8.26394 9.44751 8.12205 9.1921L8.09367 9.13535C8.06529 9.10697 8.06529 9.07859 8.03691 9.02183C8.03691 8.96508 8.03691 8.90832 8.06529 8.87994C8.06529 8.87994 8.17881 8.73805 8.26394 8.65292C8.3207 8.59616 8.34908 8.51102 8.40583 8.45427C8.46259 8.36913 8.49097 8.25562 8.46259 8.17048C8.43421 8.02859 8.09367 7.26237 8.00853 7.0921C7.95178 7.00697 7.89502 6.97859 7.80989 6.95021H7.72475C7.66799 6.95021 7.58286 6.95021 7.49772 6.95021C7.44097 6.95021 7.38421 6.97859 7.32745 6.97859L7.29908 7.00697C7.24232 7.03535 7.18556 7.0921 7.12881 7.12048C7.07205 7.17724 7.04367 7.234 6.98691 7.29075C6.78826 7.54616 6.67475 7.85832 6.67475 8.17048C6.67475 8.39751 6.73151 8.62454 6.81664 8.82319L6.84502 8.90832C7.10043 9.44751 7.44097 9.92994 7.89502 10.3556L8.00853 10.4691C8.09367 10.5543 8.17881 10.611 8.23556 10.6962C8.83151 11.207 9.51259 11.5759 10.2788 11.7745C10.3639 11.8029 10.4775 11.8029 10.5626 11.8313C10.6477 11.8313 10.7612 11.8313 10.8464 11.8313C10.9883 11.8313 11.1585 11.7745 11.272 11.7178C11.3572 11.661 11.4139 11.661 11.4707 11.6043L11.5275 11.5475C11.5842 11.4908 11.641 11.4624 11.6977 11.4056C11.7545 11.3489 11.8112 11.2921 11.8396 11.2353C11.8964 11.1218 11.9248 10.9799 11.9531 10.8381C11.9531 10.7813 11.9531 10.6962 11.9531 10.6394C11.9531 10.6394 11.9248 10.611 11.868 10.5826Z" fill="white"/>
</svg>
