<svg width="34" height="34" viewBox="0 0 34 34" fill="none" xmlns="http://www.w3.org/2000/svg">
<rect width="34" height="34" rx="17" fill="#6673A1"/>
<path fill-rule="evenodd" clip-rule="evenodd" d="M25.3144 10.0159C26.2246 10.261 26.9423 10.9786 27.1873 11.8888C27.6424 13.5517 27.6249 17.0175 27.6249 17.0175C27.6249 17.0175 27.6249 20.4658 27.1873 22.1287C26.9423 23.0389 26.2246 23.7566 25.3144 24.0016C23.6515 24.4392 17 24.4392 17 24.4392C17 24.4392 10.3659 24.4392 8.68553 23.9841C7.77532 23.7391 7.05766 23.0214 6.8126 22.1112C6.375 20.4658 6.375 17 6.375 17C6.375 17 6.375 13.5517 6.8126 11.8888C7.05766 10.9786 7.79283 10.2434 8.68553 9.99839C10.3484 9.56079 17 9.56079 17 9.56079C17 9.56079 23.6515 9.56079 25.3144 10.0159ZM20.4132 17L14.882 20.1857V13.8143L20.4132 17Z" fill="white"/>
</svg>
